Results
version=1
nRows=22
nColumns=24
inDegrees=yes
endheader
time	pelvis_tilt	pelvis_list	pelvis_rotation	pelvis_tx	pelvis_ty	pelvis_tz	hip_flexion_r	hip_adduction_r	hip_rotation_r	knee_angle_r	ankle_angle_r	subtalar_angle_r	mtp_angle_r	hip_flexion_l	hip_adduction_l	hip_rotation_l	knee_angle_l	ankle_angle_l	subtalar_angle_l	mtp_angle_l	lumbar_extension	lumbar_bending	lumbar_rotation
      1.33733333	     -0.78388168	      8.46147451	     -5.63008882	      0.22998678	      1.00672021	      0.31341792	     19.12733006	    -11.09626732	     -0.35121534	    -73.47485708	    -11.86930186	    -16.17864934	      2.29126266	      8.96207662	     13.31343404	      3.44479880	    -10.61098006	      1.76263169	    -18.35049334	     -3.64672533	    -11.10555349	     -4.38957351	      0.85139714
      1.34150000	     -0.81025133	      8.27476267	     -5.62939944	      0.23485662	      1.00758293	      0.31331697	     19.74346986	    -10.80260968	     -0.34883682	    -73.27321681	    -11.25435324	    -16.32935231	      2.21568815	      8.46084591	     13.14283400	      3.50189470	    -10.22593953	      1.82822942	    -18.27392273	     -3.65691308	    -11.11680547	     -4.11927804	      0.72082781
      1.34566667	     -0.82349778	      8.06734976	     -5.60616426	      0.23977162	      1.00847863	      0.31319859	     20.30600895	    -10.49394226	     -0.37581801	    -72.98750507	    -10.68186433	    -16.35905133	      2.05656586	      7.92336011	     12.95417804	      3.60492090	     -9.81207996	      1.93582261	    -18.17097477	     -3.67717398	    -11.11408010	     -3.80662426	      0.41063496
      1.34983333	     -0.85169194	      7.87722624	     -5.58106280	      0.24466225	      1.00927876	      0.31307600	     20.88165461	    -10.20212321	     -0.40146515	    -72.66569892	    -10.10595087	    -16.44022620	      1.89681924	      7.41583299	     12.78005975	      3.68306638	     -9.41696719	      2.02211116	    -18.06812835	     -3.69838662	    -11.11172570	     -3.52110535	      0.17794864
      1.35400000	     -0.88212920	      7.68427833	     -5.55398183	      0.24952717	      1.01004692	      0.31296352	     21.44555064	     -9.90251735	     -0.42719590	    -72.28908361	     -9.53621709	    -16.55491695	      1.80715583	      6.91680731	     12.59997980	      3.74746152	     -9.02953572	      2.08783492	    -17.96267042	     -3.71027546	    -11.12237450	     -3.24255228	      0.03031909
      1.35816667	     -0.87161773	      7.49698663	     -5.50284224	      0.25443278	      1.01083702	      0.31281764	     21.93640602	     -9.63406908	     -0.49378777	    -71.84993216	     -8.97846520	    -16.60916752	      1.54527238	      6.36342959	     12.43078095	      3.83009112	     -8.62859821	      2.19898888	    -17.80509822	     -3.74366091	    -11.14906867	     -2.95127103	     -0.35826710
      1.36233333	     -0.93226803	      7.29005809	     -5.46639722	      0.25930686	      1.01150016	      0.31271086	     22.49386923	     -9.31441904	     -0.52731477	    -71.35378616	     -8.46215954	    -16.67340100	      1.45850456	      5.89659025	     12.22909935	      3.89785419	     -8.24493001	      2.27755628	    -17.69892989	     -3.75424924	    -11.12008636	     -2.66461777	     -0.45080380
      1.36650000	     -0.96497920	      7.11219449	     -5.41655629	      0.26420922	      1.01212862	      0.31258658	     23.00745043	     -9.04516276	     -0.58274771	    -70.81777029	     -7.91017618	    -16.74658605	      1.39722862	      5.40072650	     12.05950730	      3.94024324	     -7.85619822	      2.35302908	    -17.57827896	     -3.76113753	    -11.09464438	     -2.40911893	     -0.59257779
      1.37066667	     -0.94168574	      6.92475123	     -5.35812162	      0.26910992	      1.01280867	      0.31243516	     23.43632082	     -8.78336454	     -0.65332917	    -70.21778925	     -7.40199252	    -16.70912129	      1.23813751	      4.83898497	     11.88672360	      4.01975062	     -7.46340216	      2.49153689	    -17.38902717	     -3.77770440	    -11.14441343	     -2.10588968	     -0.95599919
      1.37483333	     -0.96896575	      6.74912953	     -5.30240220	      0.27399877	      1.01335730	      0.31231732	     23.91221567	     -8.51784267	     -0.70676794	    -69.57759630	     -6.88117883	    -16.72624346	      1.10731752	      4.34260753	     11.71670105	      4.07489554	     -7.08350914	      2.58636402	    -17.23143129	     -3.79112677	    -11.14527450	     -1.84602845	     -1.16530432
      1.37900000	     -0.98543947	      6.56849709	     -5.24079078	      0.27889338	      1.01388213	      0.31220210	     24.35525435	     -8.25183696	     -0.76726571	    -68.88084719	     -6.36578856	    -16.73037128	      0.98462857	      3.83639048	     11.54076209	      4.12840777	     -6.70876782	      2.68740901	    -17.06346987	     -3.80195120	    -11.15402838	     -1.58297606	     -1.38031090
      1.38316667	     -0.96959295	      6.42162298	     -5.17015791	      0.28378395	      1.01438284	      0.31207650	     24.75530088	     -8.03592038	     -0.83327797	    -68.14932902	     -5.81750599	    -16.73212502	      0.77160601	      3.30417603	     11.40192594	      4.16853121	     -6.34213341	      2.78488998	    -16.85653004	     -3.81987594	    -11.19846704	     -1.36184117	     -1.68457791
      1.38733333	     -1.01599597	      6.25713109	     -5.11113868	      0.28868567	      1.01475412	      0.31196707	     25.20624096	     -7.78428684	     -0.88041025	    -67.36279325	     -5.32490757	    -16.74406137	      0.72527223	      2.83658390	     11.23756643	      4.21584386	     -5.97102339	      2.85356303	    -16.73414034	     -3.82227862	    -11.17193555	     -1.11424973	     -1.75492947
      1.39150000	     -1.02219567	      6.09117632	     -5.03737809	      0.29358373	      1.01515102	      0.31187531	     25.58701602	     -7.53980648	     -0.93717877	    -66.51392702	     -4.84326453	    -16.67137513	      0.18286884	      2.33927191	     11.06984397	      4.23121974	     -5.63120201	      3.01058939	    -16.46829375	     -3.85418005	    -11.18022931	     -0.85007423	     -2.19143447
      1.39566667	     -0.99065332	      5.95143361	     -4.96837610	      0.29850284	      1.01551004	      0.31175197	     25.92170819	     -7.34197192	     -0.99719410	    -65.63763117	     -4.35002517	    -16.57609796	      0.10123525	      1.78340189	     10.93761701	      4.31726205	     -5.24848637	      3.10147061	    -16.33293759	     -3.85536343	    -11.24930993	     -0.65254705	     -2.27985954
      1.39983333	     -0.98103171	      5.80941354	     -4.89603215	      0.30341757	      1.01580370	      0.31165131	     26.26082377	     -7.13483637	     -1.04975980	    -64.70636868	     -3.88250851	    -16.49234362	      0.01624333	      1.26242089	     10.79658089	      4.37586402	     -4.88675755	      3.19974176	    -16.16918115	     -3.85446309	    -11.28577819	     -0.43992171	     -2.48379685
      1.40400000	     -0.95887497	      5.67140655	     -4.81925720	      0.30833789	      1.01606820	      0.31154985	     26.56726778	     -6.93686254	     -1.10205153	    -63.72639829	     -3.42998136	    -16.41498671	     -0.07465706	      0.73358343	     10.65937104	      4.43260124	     -4.53664272	      3.29960048	    -15.98748504	     -3.85126180	    -11.33967418	     -0.23304444	     -2.70916231
      1.40816667	     -0.94877858	      5.56558339	     -4.73990145	      0.31325264	      1.01623183	      0.31145925	     26.88364574	     -6.77270668	     -1.14152159	    -62.72038788	     -2.98218576	    -16.32325480	     -0.16910806	      0.22517346	     10.55352576	      4.48966981	     -4.19341897	      3.39647412	    -15.80740600	     -3.84597845	    -11.37699597	     -0.06150690	     -2.93029669
      1.41233333	     -0.94859132	      5.43247439	     -4.65995222	      0.31819324	      1.01636021	      0.31137344	     27.17796682	     -6.58128081	     -1.18870331	    -61.64495389	     -2.57458971	    -16.23395904	     -0.20676592	     -0.27087069	     10.41612740	      4.54539493	     -3.86109842	      3.48401423	    -15.66940575	     -3.84101261	    -11.39477094	      0.12818833	     -3.05234302
      1.41650000	     -0.91223872	      5.34435846	     -4.58378290	      0.32312748	      1.01643298	      0.31128258	     27.43837193	     -6.44812856	     -1.22162511	    -60.55703188	     -2.19898078	    -16.10205581	     -0.28514294	     -0.80924366	     10.32921952	      4.61333630	     -3.51266343	      3.61776523	    -15.47260358	     -3.82999141	    -11.46301691	      0.29239210	     -3.33363172
      1.42066667	     -0.91916808	      5.24730181	     -4.49772151	      0.32807493	      1.01643068	      0.31120502	     27.71584438	     -6.30003071	     -1.25566241	    -59.40774883	     -1.83348515	    -16.00199183	     -0.32109591	     -1.28779839	     10.22664538	      4.67673633	     -3.19420870	      3.70782479	    -15.33045470	     -3.82274577	    -11.47361235	      0.44372520	     -3.46780747
      1.42483333	     -0.86457695	      5.16364008	     -4.42185146	      0.33303135	      1.01644446	      0.31113002	     27.91735852	     -6.17755098	     -1.28491295	    -58.22266331	     -1.52414874	    -15.87918933	     -0.38317695	     -1.84350454	     10.14244157	      4.74425372	     -2.85090685	      3.84253290	    -15.14646161	     -3.81007537	    -11.56140799	      0.59605021	     -3.72727506
